<svg width="150" height="150" viewBox="0 0 59 59" fill="none" xmlns="http://www.w3.org/2000/svg">
<path d="M58 29.4976C58 45.2382 45.2394 57.9978 29.5021 57.9978C13.7598 57.9978 1 45.2382 1 29.4976C1 13.7607 13.7598 1 29.5021 1C45.2401 1.00004 58 13.7607 58 29.4976Z" fill="#00CC00" stroke="black" stroke-width="0.932" stroke-miterlimit="10"/>
<path d="M38.8324 39.0769L38.8295 39.0764C34.5069 38.4595 31.5836 35.3469 29.9165 32.8895L29.5034 32.2805L29.0894 32.8889C27.4164 35.3472 24.4932 38.4627 20.173 39.0787L20.1727 39.0788C19.6574 39.1526 19.1375 39.1896 18.6169 39.1895H18.6169C15.926 39.1895 13.4067 38.1888 11.5133 36.3767L11.5131 36.3765C9.60275 34.5506 8.55191 32.1055 8.55191 29.4978C8.55191 26.8868 9.60255 24.4451 11.516 22.6156L11.5164 22.6152C13.4075 20.8034 15.9284 19.8054 18.621 19.8054C19.1344 19.8054 19.6573 19.8423 20.1723 19.9161L20.1726 19.9161C24.4931 20.5323 27.4161 23.6451 29.0891 26.1037L29.5031 26.7121L29.9162 26.1031C31.5836 23.6453 34.5067 20.5332 38.8289 19.9161L38.8292 19.9161C39.3458 19.842 39.8687 19.8054 40.3822 19.8054C43.0732 19.8054 45.5942 20.8059 47.4856 22.6155L47.83 22.2555L47.4857 22.6155C49.3979 24.4449 50.4464 26.8865 50.4464 29.4978C50.4464 32.1061 49.4004 34.551 47.4888 36.3764L47.4886 36.3766C45.5933 38.1889 43.076 39.1905 40.3853 39.1905C39.8723 39.1905 39.3474 39.1535 38.8324 39.0769ZM31.0657 29.2667L30.944 29.4991L31.0659 29.7313C31.5204 30.5968 32.42 32.1145 33.7618 33.4997C35.1026 34.8836 36.9168 36.1674 39.1984 36.4942L39.2011 36.4946C39.5943 36.5487 39.9931 36.5792 40.385 36.5792C44.467 36.5792 47.8364 33.4293 47.8364 29.4978C47.8364 25.5662 44.4676 22.4165 40.3822 22.4165C39.9927 22.4165 39.593 22.4443 39.1988 22.5015C36.917 22.8276 35.1027 24.1109 33.7619 25.4951C32.4199 26.8805 31.5203 28.3992 31.0657 29.2667ZM19.8016 36.4956L19.8044 36.4952C22.086 36.1684 23.9001 34.8853 25.2408 33.5016C26.5826 32.1168 27.4821 30.599 27.9369 29.7321L28.0586 29.5L27.937 29.2678C27.4833 28.4019 26.5838 26.8832 25.2417 25.4977C23.9012 24.1136 22.0871 22.8301 19.8061 22.5047C19.4114 22.4451 19.0101 22.4175 18.621 22.4175C14.5342 22.4175 11.1639 25.5669 11.1639 29.4988C11.1639 33.4296 14.5325 36.5801 18.6162 36.5801C19.0097 36.5801 19.4086 36.5496 19.8016 36.4956Z" fill="#040404" stroke="black"/>
<path d="M40.5854 28.5002V29.0002H41.0854H42.7333V30.0446H41.0854H40.5854V30.5446V32.1953H39.534V30.5446V30.0446H39.034H37.387V29.0002H39.034H39.534V28.5002V26.8491H40.5854V28.5002ZM16.2096 29.0002H21.5541V30.0446H16.2096V29.0002Z" fill="#040404" stroke="black"/>
</svg>
