<svg width="150" height="150" viewBox="0 0 49 49" fill="none" xmlns="http://www.w3.org/2000/svg">
                        <path d="M0.5 48.5V0.5H48.5V48.5H0.5Z" fill="black" stroke="#0c0"/>
                        <path d="M3.78286 17.1929V31.1449L24.8311 45.2171L45.8793 31.1449V17.1929L24.8311 3.1207L3.78286 17.1929Z" stroke="#0c0" stroke-width="2" stroke-linejoin="round"/>
                        <path d="M3.78286 17.1929L24.8311 31.1449L45.8793 17.1929M24.8311 3.1207V17.1929" stroke="#0c0" stroke-width="2" stroke-linejoin="round"/>
                        <path d="M3.78286 31.1449L24.8311 17.1929L45.8793 31.1449M24.8311 45.2171V31.1449" stroke="#0c0" stroke-width="2" stroke-linejoin="round"/>
                        <path d="M0.5 48.5V0.5H48.5V48.5H0.5Z" fill="black" stroke="#0c0"/>
                        <path d="M3.78286 17.1929V31.1449L24.8311 45.2171L45.8793 31.1449V17.1929L24.8311 3.1207L3.78286 17.1929Z" stroke="#0c0" stroke-width="2" stroke-linejoin="round"/>
                        <path d="M3.78286 17.1929L24.8311 31.1449L45.8793 17.1929M24.8311 3.1207V17.1929" stroke="#0c0" stroke-width="2" stroke-linejoin="round"/>
                        <path d="M3.78286 31.1449L24.8311 17.1929L45.8793 31.1449M24.8311 45.2171V31.1449" stroke="#0c0" stroke-width="2" stroke-linejoin="round"/>
                    </svg>