<svg width="150" height="150" viewBox="0 0 57 80" fill="none" xmlns="http://www.w3.org/2000/svg">
<path d="M14.6161 2.811L14.1244 2.81405L14.1192 3.30575C14.1152 3.69021 14.1103 4.07561 14.1053 4.46168C14.0899 5.66709 14.0744 6.879 14.0859 8.0892L14.0905 8.58144L14.5827 8.58447C15.0686 8.58746 15.5548 8.59079 16.0412 8.59412C17.8272 8.60636 19.6164 8.61861 21.4047 8.61441C21.4142 9.17978 21.4099 9.74746 21.3974 10.3168C18.6481 10.3008 15.8988 10.3043 13.1515 10.3078C12.737 10.3083 12.3225 10.3088 11.908 10.3093C11.9154 7.04614 11.9205 3.78282 11.9059 0.517889C14.1827 0.494057 16.4579 0.499183 18.7369 0.504318C19.629 0.506328 20.5217 0.508339 21.4153 0.508615C21.4219 1.27608 21.4276 2.03528 21.4107 2.79307C19.2593 2.78211 17.1097 2.79549 14.9634 2.80884C14.8476 2.80956 14.7319 2.81028 14.6161 2.811Z" fill="#00CC00" stroke="black"/>
<path d="M25.2442 0.506918C27.9297 0.499643 30.6117 0.492378 33.2948 0.518399C33.2912 1.08075 33.2928 1.6432 33.2944 2.20309C33.2949 2.34487 33.2953 2.48649 33.2956 2.6279C30.88 2.62251 28.4633 2.63456 26.0481 2.66266L25.5498 2.66845L25.5539 3.16672C25.5572 3.57095 25.5572 3.97518 25.5539 4.37942L25.5499 4.87542L26.0458 4.88345C28.0735 4.91626 30.1007 4.92639 32.1245 4.9365C32.5109 4.93843 32.8972 4.94036 33.2833 4.94244C33.2862 5.72927 33.2874 6.51853 33.2887 7.3083C33.2902 8.30958 33.2917 9.31168 33.2967 10.3107C30.0807 10.3055 26.8644 10.3087 23.6481 10.3227C23.641 9.79953 23.641 9.27761 23.6502 8.75595C25.9461 8.76169 28.245 8.76336 30.5429 8.74465L31.0256 8.74072L31.0387 8.25826C31.0538 7.70115 31.0606 7.14237 31.0589 6.58528L31.0574 6.08679H30.5589C29.9405 6.08679 29.3223 6.08731 28.7043 6.08783C27.0174 6.08926 25.3319 6.09068 23.6468 6.08149C23.6469 4.2241 23.6476 2.36689 23.6573 0.510963C24.1864 0.509784 24.7154 0.508351 25.2442 0.506918Z" fill="#00CC00" stroke="black"/>
<path d="M44.7928 4.9833C44.8952 4.98438 44.9976 4.98546 45.0999 4.98654C45.1186 6.7703 45.1302 8.55074 45.1109 10.33C41.8912 10.3218 38.6713 10.322 35.4511 10.3358C35.4421 9.81391 35.4407 9.29382 35.4535 8.77613C37.7478 8.79061 40.0433 8.78625 42.3387 8.76442L42.828 8.75977L42.8339 8.27047C42.8354 8.14495 42.8372 8.01861 42.839 7.89168C42.845 7.4648 42.8511 7.03132 42.8472 6.60037L42.8427 6.10018L42.3425 6.10492C40.1782 6.12544 38.0126 6.11758 35.8429 6.10972C35.7132 6.10925 35.5835 6.10878 35.4538 6.10831C35.4559 4.24996 35.469 2.39026 35.4831 0.53009H35.4846H35.5053H35.5261H35.5468H35.5676H35.5883H35.609H35.6298H35.6505H35.6713H35.692H35.7127H35.7335H35.7542H35.7749H35.7957H35.8164H35.8372H35.8579H35.8786H35.8994H35.9201H35.9409H35.9616H35.9823H36.0031H36.0238H36.0446H36.0653H36.086H36.1068H36.1275H36.1483H36.169H36.1897H36.2105H36.2312H36.252H36.2727H36.2934H36.3142H36.3349H36.3557H36.3764H36.3971H36.4179H36.4386H36.4594H36.4801H36.5008H36.5216H36.5423H36.5631H36.5838H36.6045H36.6253H36.646H36.6668H36.6875H36.7082H36.729H36.7497H36.7705H36.7912H36.8119H36.8327H36.8534H36.8742H36.8949H36.9156H36.9364H36.9571H36.9779H36.9986H37.0193H37.0401H37.0608H37.0816H37.1023H37.1231H37.1438H37.1645H37.1853H37.206H37.2268H37.2475H37.2682H37.289H37.3097H37.3305H37.3512H37.3719H37.3927H37.4134H37.4342H37.4549H37.4757H37.4964H37.5171H37.5379H37.5586H37.5794H37.6001H37.6208H37.6416H37.6623H37.6831H37.7038H37.7246H37.7453H37.766H37.7868H37.8075H37.8283H37.849H37.8697H37.8905H37.9112H37.932H37.9527H37.9735H37.9942H38.0149H38.0357H38.0564H38.0772H38.0979H38.1186H38.1394H38.1601H38.1809H38.2016H38.2224H38.2431H38.2638H38.2846H38.3053H38.3261H38.3468H38.3675H38.3883H38.409H38.4298H38.4505H38.4713H38.492H38.5127H38.5335H38.5542H38.575H38.5957H38.6165H38.6372H38.6579H38.6787H38.6994H38.7202H38.7409H38.7616H38.7824H38.8031H38.8239H38.8446H38.8654H38.8861H38.9068H38.9276H38.9483H38.9691H38.9898H39.0106H39.0313H39.052H39.0728H39.0935H39.1143H39.135H39.1558H39.1765H39.1972H39.218H39.2387H39.2595H39.2802H39.301H39.3217H39.3424H39.3632H39.3839H39.4047H39.4254H39.4461H39.4669H39.4876H39.5084H39.5291H39.5499H39.5706H39.5913H39.6121H39.6328H39.6536H39.6743H39.6951H39.7158H39.7365H39.7573H39.778H39.7988H39.8195H39.8403H39.861H39.8817H39.9025H39.9232H39.944H39.9647H39.9855H40.0062H40.0269H40.0477H40.0684H40.0892H40.1099H40.1307H40.1514H40.1721H40.1929H40.2136H40.2344H40.2551H40.2759H40.2966H40.3173H40.3381H40.3588H40.3796H40.4003H40.4211H40.4418H40.4625H40.4833H40.504H40.5248H40.5455H40.5663H40.587H40.6077H40.6285H40.6492H40.67H40.6907H40.7115H40.7322H40.7529H40.7737H40.7944H40.8152H40.8359H40.8567H40.8774H40.8981H40.9189H40.9396H40.9604H40.9811H41.0019H41.0226H41.0433H41.0641H41.0848H41.1056H41.1263H41.147H41.1678H41.1885H41.2093H41.23H41.2508H41.2715H41.2922H41.313H41.3337H41.3545H41.3752H41.396H41.4167H41.4374H41.4582H41.4789H41.4997H41.5204H41.5412H41.5619H41.5826H41.6034H41.6241H41.6449H41.6656H41.6864H41.7071H41.7278H41.7486H41.7693H41.7901H41.8108H41.8315H41.8523H41.873H41.8938H41.9145H41.9353H41.956H41.9767H41.9975H42.0182H42.039H42.0597H42.0805H42.1012H42.1219H42.1427H42.1634H42.1842H42.2049H42.2257H42.2464H42.2671H42.2879H42.3086H42.3294H42.3501H42.3708H42.3916H42.4123H42.4331H42.4538H42.4746H42.4953H42.516H42.5368H42.5575H42.5783H42.599H42.6197H42.6405H42.6612H42.682H42.7027H42.7235H42.7442H42.7649H42.7857H42.8064H42.8272H42.8479H42.8686H42.8894H42.9101H42.9309H42.9516H42.9724H42.9931H43.0138H43.0346H43.0553H43.0761H43.0968H43.1175H43.1383H43.159H43.1798H43.2005H43.2213H43.242H43.2627H43.2835H43.3042H43.325H43.3457H43.3664H43.3872H43.4079H43.4287H43.4494H43.4701H43.4909H43.5116H43.5324H43.5531H43.5738H43.5946H43.6153H43.6361H43.6568H43.6776H43.6983H43.719H43.7398H43.7605H43.7813H43.802H43.8227H43.8435H43.8642H43.885H43.9057H43.9264H43.9472H43.9679H43.9887H44.0094H44.0301H44.0509H44.0716H44.0924H44.1131H44.1338H44.1546H44.1753H44.1961H44.2168H44.2375H44.2583H44.279H44.2998H44.3205H44.3412H44.362H44.3827H44.4035H44.4242H44.4449H44.4657H44.4864H44.5072H44.5279H44.5486H44.5694H44.5901H44.6109H44.6316H44.6523H44.6731H44.6938H44.7146H44.7353H44.756H44.7768H44.7975H44.8183H44.839H44.8597H44.8805H44.9012H44.9219H44.9427H44.9634H44.9842H45.0049H45.0256H45.0464H45.0671H45.0879H45.1086H45.1133C45.1227 1.24149 45.1285 1.94725 45.1154 2.65058C43.6571 2.65076 42.198 2.65569 40.7398 2.66062C39.768 2.6639 38.7967 2.66718 37.8263 2.66905L37.3194 2.67003L37.3274 3.17689C37.3341 3.60437 37.3442 4.03646 37.3663 4.47044L37.3906 4.94714L37.8679 4.94498C40.1751 4.93453 42.4823 4.9589 44.7928 4.9833Z" fill="#00CC00" stroke="black"/>
<path d="M56.4538 15.7847C56.2435 18.163 56.0337 20.5412 55.824 22.9192C55.0076 32.1767 54.1913 41.4325 53.3381 50.6865L53.3378 50.6897C52.7007 58.1236 52.0442 65.557 51.3524 72.9854C49.4335 73.4979 47.5239 74.0418 45.619 74.585L45.5169 74.6141C43.5332 75.1798 41.5544 75.7441 39.567 76.2733L39.567 76.2731L39.5549 76.2767C37.6975 76.8218 35.8319 77.3412 33.9625 77.8606L33.7305 77.9251C31.9678 78.4149 30.2018 78.9055 28.4417 79.4171C26.6941 78.8985 24.9389 78.4102 23.1885 77.9234L23.1858 77.9226C21.4042 77.427 19.6276 76.9329 17.8605 76.4073L17.8605 76.4071L17.8481 76.4038C15.8002 75.8518 13.7607 75.2684 11.7168 74.6838L11.599 74.6502C9.62784 74.0864 7.65257 73.522 5.66831 72.9862C5.13638 67.448 4.65467 61.9061 4.1792 56.3622L4.17912 56.3613C3.80291 52.0654 3.41345 47.7734 3.02408 43.4824C2.46511 37.3223 1.90632 31.1643 1.38722 25L1.38726 25L1.38665 24.9937C1.27436 23.8358 1.17332 22.6699 1.07202 21.5011C0.906954 19.5963 0.741198 17.6837 0.524943 15.7848C19.1685 15.7831 37.8104 15.7815 56.4538 15.7847ZM28.5876 19.4466L28.0979 19.4482L28.0893 19.9378C28.0712 20.9662 28.0751 21.9689 28.079 22.9653C28.0833 24.0608 28.0876 25.1487 28.0624 26.2549C23.1314 26.2388 18.1992 26.2457 13.269 26.2527C11.8434 26.2547 10.4179 26.2568 8.99273 26.2582L8.46727 26.2588L8.49388 26.7835C8.60689 29.0116 8.9052 31.2203 9.20852 33.4035L9.26621 33.8188L9.68521 33.8343C12.7287 33.9473 15.7723 33.9452 18.8058 33.9377C18.9556 33.9373 19.1053 33.9369 19.255 33.9365C21.3955 33.9311 23.5307 33.9256 25.6634 33.9583C23.1012 35.0892 20.5295 36.1936 17.9551 37.2992C15.8706 38.1945 13.7844 39.0904 11.7 40.0018L11.697 40.0031C11.6056 40.0438 11.5024 40.0859 11.392 40.131C11.037 40.2759 10.6071 40.4514 10.2522 40.7092L10.0413 40.8624L10.0461 41.123C10.0691 42.3552 10.1798 43.5793 10.3047 44.788C10.3331 45.0626 10.3622 45.3359 10.3911 45.6084C10.4904 46.5416 10.5885 47.4647 10.6544 48.3912L10.6876 48.8574L11.155 48.8557C12.6569 48.8502 14.1481 48.8363 15.6377 48.8224C17.3725 48.8062 19.105 48.79 20.8493 48.7873L20.8512 48.7873C21.8121 48.7823 22.7794 48.7864 23.7496 48.7906C25.1997 48.7967 26.6561 48.8029 28.1065 48.7789C28.0608 50.6039 28.0697 52.4279 28.0786 54.2433L28.0787 54.2565C28.0875 56.0546 28.0963 57.8443 28.0532 59.6311C27.1763 59.4879 26.3116 59.3183 25.4379 59.147C24.7782 59.0176 24.1133 58.8872 23.4341 58.7664C22.9096 58.6523 22.3775 58.5582 21.8566 58.4661C21.689 58.4365 21.5226 58.407 21.358 58.3772C20.7851 58.2734 20.2259 58.1636 19.6796 58.0206C19.5774 56.9661 19.4917 55.9146 19.4057 54.8589C19.3453 54.1187 19.2849 53.3764 19.2184 52.6295L19.1886 52.2948L18.8674 52.1959C18.45 52.0675 18.0108 52.0636 17.6616 52.0604C17.6129 52.06 17.566 52.0596 17.5211 52.0588L17.5211 52.0587L17.5098 52.0588C16.7665 52.0632 16.0188 52.0633 15.2692 52.0633C14.0567 52.0635 12.8393 52.0636 11.6275 52.0822L11.1088 52.0901L11.1359 52.6082C11.3283 56.2948 11.6599 59.9815 12.2252 63.6415L12.2753 63.9661L12.5931 64.049C13.0687 64.173 13.5439 64.2963 14.0188 64.4195C15.4762 64.7975 16.9306 65.1748 18.3821 65.5703L18.3822 65.5704C19.8657 65.9741 21.3573 66.3436 22.8436 66.71L23.0794 66.7682C24.4883 67.1154 25.8918 67.4613 27.2876 67.8343L27.3 67.8376L27.3124 67.8402C27.39 67.8568 27.4692 67.8767 27.5593 67.8994L27.5629 67.9003C27.649 67.9219 27.7453 67.9462 27.8434 67.9672C27.9003 67.9793 27.9601 67.9909 28.0225 68.0008C28.1133 69.4016 28.0962 70.7917 28.0788 72.2036C28.0683 73.0606 28.0576 73.9256 28.0709 74.8059L28.0797 75.3841L28.6505 75.292C29.3579 75.1778 30.0487 75.0041 30.7217 74.7966C34.5233 73.7641 38.3225 72.7184 42.1207 71.6729C43.9163 71.1787 45.7116 70.6845 47.507 70.1918L47.8288 70.1035L47.8707 69.7724C48.0449 68.3951 48.1627 66.9975 48.2794 65.6125C48.3496 64.7796 48.4195 63.9511 48.501 63.1344L48.501 63.1344L48.5016 63.128C49.0836 56.4199 49.6707 49.7125 50.281 43.0071C50.6298 39.2665 50.9557 35.5242 51.2814 31.7837L51.3067 31.4925C51.6409 27.6541 51.9756 23.8175 52.3357 19.9833L52.3871 19.4361L51.8375 19.4366C48.9109 19.4391 45.9837 19.4376 43.0562 19.436C38.2334 19.4335 33.4098 19.431 28.5876 19.4466Z" fill="#00CC00" stroke="black"/>
<path d="M28.5893 19.9466C36.3383 19.9216 44.0873 19.9433 51.8379 19.9366C51.1174 27.6089 50.4986 35.2895 49.7831 42.9618C49.1726 49.6683 48.5855 56.3766 48.0034 63.0848C47.7833 65.2914 47.6532 67.508 47.3747 69.7097C41.7772 71.2458 36.1832 72.7952 30.5824 74.3164C29.9236 74.5198 29.2531 74.6883 28.5709 74.7984C28.5342 72.3749 28.686 69.9432 28.4892 67.5264C28.5392 67.5164 28.641 67.4964 28.691 67.4864C33.8998 66.1787 39.0736 64.7394 44.2707 63.385C44.9279 56.013 45.6567 48.6443 46.1187 41.2572C41.6988 41.2805 37.2773 41.2672 32.8574 41.2855C32.2136 41.2889 31.5698 41.2855 30.9293 41.2388C33.3077 40.0146 35.8095 39.0439 38.2513 37.9514C40.5947 36.889 42.9664 35.8933 45.3182 34.8508C45.7718 34.6424 46.2555 34.4689 46.6541 34.1587C46.8109 33.5833 46.8026 32.9811 46.8643 32.3924C46.9994 30.5243 47.2396 28.6663 47.3296 26.7966C41.0701 26.7466 34.8105 26.79 28.5492 26.7566C28.6193 24.4883 28.5492 22.2166 28.5893 19.9466Z" fill="#0EC10E"/>
<path d="M28.6211 48.269C31.6433 48.2173 34.6672 48.299 37.6911 48.279C37.5226 51.3696 37.2658 54.4552 37.1057 57.5458C35.2526 58.1512 33.3713 58.6633 31.5032 59.2237C30.5075 59.5272 29.4851 59.7674 28.5377 60.2127C28.6595 56.2331 28.4977 52.2486 28.6211 48.269Z" fill="#0EC10E"/>
<path d="M8.99329 26.7581C15.5114 26.7515 22.0312 26.7331 28.5493 26.7565C28.6343 33.9284 28.5276 41.1003 28.621 48.2688C26.0307 48.3256 23.4389 48.2738 20.8486 48.2872C17.6163 48.2922 14.3856 48.3439 11.1532 48.3556C10.9814 45.9405 10.5911 43.5337 10.5461 41.1136C10.9547 40.8167 11.4434 40.6633 11.9004 40.4598C17.2293 38.1298 22.5999 35.8881 27.9054 33.5081C21.841 33.3263 15.7682 33.5598 9.70381 33.3346C9.40025 31.1497 9.10503 28.9614 8.99329 26.7581Z" fill="#040404"/>
<path d="M11.6348 52.5822C13.5946 52.5521 15.5543 52.5705 17.5124 52.5588C17.9161 52.5655 18.3297 52.5538 18.72 52.6739C18.8901 54.5853 19.0235 56.5017 19.2153 58.4114C20.5647 58.8034 21.9673 58.9585 23.3367 59.257C25.0729 59.5656 26.7942 59.9542 28.5371 60.2127C28.7039 62.6345 28.4121 65.0729 28.6906 67.4864C28.6406 67.4964 28.5388 67.5164 28.4888 67.5264C28.1235 67.5564 27.7683 67.4263 27.4163 67.3513C24.4575 66.5607 21.467 65.8919 18.5132 65.088C16.5851 64.5626 14.6503 64.0689 12.7189 63.5652C12.1568 59.9259 11.8266 56.2565 11.6348 52.5822Z" fill="#040404"/>
<path d="M28.5494 26.7566C34.8107 26.7899 41.0702 26.7466 47.3298 26.7966C47.2397 28.6663 46.9996 30.5243 46.8645 32.3923C46.8027 32.9811 46.8111 33.5832 46.6543 34.1586C46.2557 34.4689 45.772 34.6423 45.3183 34.8508C42.9666 35.8932 40.5949 36.889 38.2515 37.9514C35.8097 39.0439 33.3079 40.0146 30.9295 41.2388C31.57 41.2855 32.2138 41.2889 32.8576 41.2855C37.2775 41.2672 41.699 41.2805 46.1189 41.2572C45.6569 48.6442 44.928 56.013 44.2709 63.385C39.0738 64.7393 33.9 66.1787 28.6912 67.4863C28.4126 65.0729 28.7045 62.6345 28.5377 60.2127C29.4851 59.7674 30.5075 59.5272 31.5032 59.2236C33.3713 58.6632 35.2526 58.1512 37.1057 57.5457C37.2658 54.4552 37.5226 51.3696 37.6911 48.279C34.6672 48.299 31.6433 48.2173 28.6211 48.269C28.5277 41.1004 28.6345 33.9285 28.5494 26.7566Z" fill="#040404"/>
</svg>
