<svg width="150" height="150" viewBox="0 0 57 57" fill="none" xmlns="http://www.w3.org/2000/svg">
<rect x="1.44562" y="1.2717" width="54.9895" height="55.2283" fill="black" stroke="#0c0"/>
<path fill-rule="evenodd" clip-rule="evenodd" d="M28.8283 4.28596C14.9772 4.28596 3.74509 15.5632 3.74509 29.4762C3.74509 40.6058 10.9324 50.0484 20.8987 53.3794C22.1521 53.612 22.6128 52.8323 22.6128 52.1672C22.6128 51.5667 22.5896 49.5823 22.5786 47.4772C15.6005 49.001 14.1276 44.5052 14.1276 44.5052C12.9869 41.5935 11.3425 40.8186 11.3425 40.8186C9.06655 39.2557 11.5143 39.288 11.5143 39.288C14.0326 39.4658 15.3592 41.8852 15.3592 41.8852C17.5962 45.7352 21.2274 44.6218 22.6586 43.978C22.8841 42.3499 23.5341 41.2387 24.2511 40.6092C18.6802 39.973 12.8229 37.8129 12.8229 28.1604C12.8229 25.4104 13.803 23.1628 15.4077 21.3992C15.1473 20.7642 14.2882 18.2023 15.6511 14.7323C15.6511 14.7323 17.7568 14.0559 22.55 17.3148C24.5512 16.7568 26.6972 16.4768 28.8283 16.4672C30.96 16.4768 33.1075 16.7568 35.112 17.3148C39.8997 14.0559 42.0035 14.7323 42.0035 14.7323C43.3683 18.2023 42.5099 20.7642 42.2495 21.3992C43.8577 23.1628 44.8309 25.4104 44.8309 28.1604C44.8309 37.8363 38.9627 39.9654 33.3774 40.5901C34.2769 41.3711 35.0779 42.9045 35.0779 45.2547C35.0779 48.6248 35.0498 51.3374 35.0498 52.1672C35.0498 52.8378 35.5017 53.623 36.7735 53.376C46.7337 50.0415 53.9121 40.6024 53.9121 29.4762C53.9121 15.5632 42.6814 4.28596 28.8283 4.28596Z" fill="#0c0"/>
<path d="M13.246 40.4534C13.1906 40.579 12.9944 40.6161 12.8153 40.531C12.6336 40.4486 12.5314 40.2777 12.5905 40.1521C12.6445 40.0231 12.8407 39.9874 13.0224 40.0739C13.205 40.1563 13.3085 40.3278 13.246 40.4534Z" fill="#0c0"/>
<path d="M14.2615 41.5921C14.1419 41.7034 13.9082 41.6512 13.7497 41.4754C13.5849 41.2997 13.5545 41.065 13.6758 40.951C13.7996 40.8413 14.0258 40.8927 14.1905 41.0684C14.3545 41.2462 14.3866 41.4789 14.2615 41.5921Z" fill="#0c0"/>
<path d="M15.2505 43.0425C15.0968 43.1502 14.8452 43.0487 14.6901 42.8249C14.5363 42.6011 14.5363 42.3321 14.6935 42.2243C14.8494 42.1172 15.0968 42.214 15.2543 42.4364C15.4077 42.6636 15.4077 42.9327 15.2505 43.0425Z" fill="#0c0"/>
<path d="M16.6055 44.4434C16.4678 44.5965 16.1753 44.5553 15.9607 44.3473C15.7413 44.1448 15.6805 43.8559 15.8178 43.7035C15.958 43.5511 16.2525 43.5943 16.4678 43.8009C16.6858 44.0034 16.7521 44.2937 16.6055 44.4434Z" fill="#0c0"/>
<path d="M18.4745 45.2581C18.4136 45.455 18.132 45.5443 17.8477 45.4606C17.5641 45.3741 17.3788 45.1435 17.4356 44.9444C17.4944 44.7454 17.778 44.6527 18.0644 44.7419C18.348 44.8278 18.5332 45.057 18.4745 45.2581Z" fill="#0c0"/>
<path d="M20.5275 45.4084C20.5344 45.6164 20.2939 45.7887 19.9955 45.7928C19.6958 45.7997 19.4525 45.6308 19.4497 45.4263C19.4497 45.217 19.6848 45.0467 19.9849 45.0412C20.2829 45.0358 20.5275 45.2025 20.5275 45.4084Z" fill="#0c0"/>
<path d="M22.4378 45.0824C22.4734 45.2849 22.2663 45.4935 21.9704 45.5485C21.6785 45.602 21.4092 45.4771 21.3724 45.276C21.3361 45.068 21.5473 44.86 21.8374 44.8058C22.1344 44.755 22.4002 44.8765 22.4378 45.0824Z" fill="#0c0"/>
<rect x="1.44562" y="1.2717" width="54.9895" height="55.2283" fill="black" stroke="#0c0"/>
<path fill-rule="evenodd" clip-rule="evenodd" d="M28.8283 4.28596C14.9772 4.28596 3.74509 15.5632 3.74509 29.4762C3.74509 40.6058 10.9324 50.0484 20.8987 53.3794C22.1521 53.612 22.6128 52.8323 22.6128 52.1672C22.6128 51.5667 22.5896 49.5823 22.5786 47.4772C15.6005 49.001 14.1276 44.5052 14.1276 44.5052C12.9869 41.5935 11.3425 40.8186 11.3425 40.8186C9.06655 39.2557 11.5143 39.288 11.5143 39.288C14.0326 39.4658 15.3592 41.8852 15.3592 41.8852C17.5962 45.7352 21.2274 44.6218 22.6586 43.978C22.8841 42.3499 23.5341 41.2387 24.2511 40.6092C18.6802 39.973 12.8229 37.8129 12.8229 28.1604C12.8229 25.4104 13.803 23.1628 15.4077 21.3992C15.1473 20.7642 14.2882 18.2023 15.6511 14.7323C15.6511 14.7323 17.7568 14.0559 22.55 17.3148C24.5512 16.7568 26.6972 16.4768 28.8283 16.4672C30.96 16.4768 33.1075 16.7568 35.112 17.3148C39.8997 14.0559 42.0035 14.7323 42.0035 14.7323C43.3683 18.2023 42.5099 20.7642 42.2495 21.3992C43.8577 23.1628 44.8309 25.4104 44.8309 28.1604C44.8309 37.8363 38.9627 39.9654 33.3774 40.5901C34.2769 41.3711 35.0779 42.9045 35.0779 45.2547C35.0779 48.6248 35.0498 51.3374 35.0498 52.1672C35.0498 52.8378 35.5017 53.623 36.7735 53.376C46.7337 50.0415 53.9121 40.6024 53.9121 29.4762C53.9121 15.5632 42.6814 4.28596 28.8283 4.28596Z" fill="#0c0"/>
<path d="M13.246 40.4534C13.1906 40.579 12.9944 40.6161 12.8153 40.531C12.6336 40.4486 12.5314 40.2777 12.5905 40.1521C12.6445 40.0231 12.8407 39.9874 13.0224 40.0739C13.205 40.1563 13.3085 40.3278 13.246 40.4534Z" fill="#0c0"/>
<path d="M14.2615 41.5921C14.1419 41.7034 13.9082 41.6512 13.7497 41.4754C13.5849 41.2997 13.5545 41.065 13.6758 40.951C13.7996 40.8413 14.0258 40.8927 14.1905 41.0684C14.3545 41.2462 14.3866 41.4789 14.2615 41.5921Z" fill="#0c0"/>
<path d="M15.2505 43.0425C15.0968 43.1502 14.8452 43.0487 14.6901 42.8249C14.5363 42.6011 14.5363 42.3321 14.6935 42.2243C14.8494 42.1172 15.0968 42.214 15.2543 42.4364C15.4077 42.6636 15.4077 42.9327 15.2505 43.0425Z" fill="#0c0"/>
<path d="M16.6055 44.4434C16.4678 44.5965 16.1753 44.5553 15.9607 44.3473C15.7413 44.1448 15.6805 43.8559 15.8178 43.7035C15.958 43.5511 16.2525 43.5943 16.4678 43.8009C16.6858 44.0034 16.7521 44.2937 16.6055 44.4434Z" fill="#0c0"/>
<path d="M18.4745 45.2581C18.4136 45.455 18.132 45.5443 17.8477 45.4606C17.5641 45.3741 17.3788 45.1435 17.4356 44.9444C17.4944 44.7454 17.778 44.6527 18.0644 44.7419C18.348 44.8278 18.5332 45.057 18.4745 45.2581Z" fill="#0c0"/>
<path d="M20.5275 45.4084C20.5344 45.6164 20.2939 45.7887 19.9955 45.7928C19.6958 45.7997 19.4525 45.6308 19.4497 45.4263C19.4497 45.217 19.6848 45.0467 19.9849 45.0412C20.2829 45.0358 20.5275 45.2025 20.5275 45.4084Z" fill="#0c0"/>
<path d="M22.4378 45.0824C22.4734 45.2849 22.2663 45.4935 21.9704 45.5485C21.6785 45.602 21.4092 45.4771 21.3724 45.276C21.3361 45.068 21.5473 44.86 21.8374 44.8058C22.1344 44.755 22.4002 44.8765 22.4378 45.0824Z" fill="#0c0"/>
</svg>
