<svg width="150" height="178" viewBox="0 0 57 81" fill="none" xmlns="http://www.w3.org/2000/svg">
<path d="M8.45611 7.22712V10.3407H5.81113V0.5H8.42469V3.58214V4.08214H8.92469H12.2555H12.7555V3.58214V0.5H15.369V10.3407H12.7555V7.22712V6.72712H12.2555H8.95611H8.45611V7.22712ZM21.1452 3.61356V3.11356H20.6452H17.9558V0.5H26.9638V3.11356H24.2588H23.7588V3.61356V10.3407H21.1452V3.61356ZM35.5893 4.07789L37.7685 0.5H40.7739V10.3407H38.1604V5.46748V3.77904L37.241 5.19522L35.1309 8.44559L33.0208 5.19522L32.1014 3.77904V5.46748V10.3407H29.5507V0.5H32.5561L34.7353 4.07789L35.1623 4.77903L35.5893 4.07789ZM43.065 10.3407V0.5H46.1786V7.25855V7.75855H46.6786H51.3004V10.3407H43.065Z" fill="#00CC00" stroke="black"/>
<path d="M28.3194 79.9592L28.4529 80.441L5.18467 73.9994L5.6827 73.9551L0.546527 16.3055H56.4534L51.3481 73.5787L28.3194 79.9592Z" fill="#00CC00" stroke="black"/>
<path d="M47.3534 70.2287L29 75.3523V21.0815H51.2528L46.8554 70.1841L47.3534 70.2287Z" fill="#0EC10E" stroke="black"/>
<path d="M11.1364 28.1992H27.9999V34.332H18.4134H17.8662L17.9154 34.877L18.5753 42.1827L18.6164 42.6377H19.0732H27.9999V48.7548H12.9942L11.1364 28.1992ZM27.9999 67.4653L13.9915 63.5574L13.8571 64.039L12.8965 53.337H19.558L20.0206 58.584L20.0513 58.9326L20.3893 59.0231L27.9999 61.0606V67.4653Z" fill="#040404" stroke="black"/>
<path d="M43.0797 64.0391L44.9987 42.6377H28.9683V48.7706H37.2665H37.8135L37.7645 49.3153L36.9319 58.5849L36.9006 58.9326L36.5634 59.0231L28.9683 61.0604V67.4349L42.946 63.5573L43.0797 64.0391ZM28.9683 34.332V28.1992H45.7992L45.2318 34.332H28.9683Z" fill="#040404" stroke="black"/>
</svg>
