<svg width="150" height="150" viewBox="0 0 56 57" fill="none" xmlns="http://www.w3.org/2000/svg">
<rect x="0.510452" y="0.5" width="54.9895" height="55.2283" fill="black" stroke="#0c0"/>
<rect width="48.9909" height="49.1998" fill="black" transform="translate(3.5098 3.51427)"/>
<rect width="48.9909" height="49.1998" fill="black" transform="translate(3.5098 3.51427)"/>
<path d="M47.3494 24.3273V23.8273H46.8494H42.5844H41.9402L42.1 24.4514C42.4014 25.6279 42.579 26.8516 42.579 28.1131C42.579 36.2013 36.0516 42.7522 28.0049 42.7522C19.9586 42.7522 13.4315 36.2013 13.4315 28.1131C13.4315 26.8516 13.609 25.628 13.911 24.4516L14.0713 23.8273H13.4267H9.16141H8.66141V24.3273V45.1444C8.66141 46.4628 9.72792 47.5353 11.0476 47.5353H44.9625C46.2824 47.5353 47.3494 46.463 47.3494 45.1444V24.3273ZM47.3494 11.0822C47.3494 9.76293 46.2826 8.68998 44.9625 8.68998H39.3112C37.9924 8.68998 36.927 9.76354 36.927 11.0822V16.76C36.927 18.0787 37.9924 19.1522 39.3112 19.1522H44.9625C46.2826 19.1522 47.3494 18.0793 47.3494 16.76V11.0822ZM28.0049 18.1522C22.5233 18.1522 18.0835 22.6134 18.0835 28.1131C18.0835 33.6125 22.5232 38.0761 28.0049 38.0761C33.4869 38.0761 37.927 33.6125 37.927 28.1131C37.927 22.6133 33.4868 18.1522 28.0049 18.1522ZM46.8494 52.214H9.16141C6.31879 52.214 4.0098 49.8977 4.0098 47.0353V9.18998C4.0098 6.32948 6.31854 4.01427 9.16141 4.01427H46.8494C49.6929 4.01427 52.0006 6.32941 52.0006 9.18998V47.0353C52.0006 49.8978 49.6926 52.214 46.8494 52.214Z" fill="#0c0" stroke="black"/>
</svg>
