<svg width="150" height="150" viewBox="0 0 57 57" fill="none" xmlns="http://www.w3.org/2000/svg">
<path d="M0.5 0.5H56.5V56.5H0.5V0.5Z" fill="#00CC00" stroke="black"/>
<path d="M34.606 47.2497L38.1264 45.2045C38.6643 46.0097 39.2952 46.7311 40.0892 47.2736C41.0245 47.9127 42.158 48.2841 43.5733 48.2841C44.7611 48.2841 45.7833 47.9877 46.5221 47.4394C47.2708 46.8838 47.7105 46.0792 47.7105 45.1422C47.7105 44.6138 47.6049 44.1478 47.3883 43.7313C47.1728 43.3171 46.8612 42.978 46.4856 42.683C45.7564 42.1104 44.7158 41.6552 43.5192 41.1319L43.5113 41.1284L43.5081 41.127L42.169 40.5525L42.1679 40.552C40.2587 39.7386 38.7315 38.8465 37.6799 37.6625C36.6435 36.4957 36.039 35.0112 36.039 32.9415C36.039 31.065 36.7514 29.4312 38.0077 28.2637C39.2656 27.0949 41.0993 26.3662 43.3833 26.3662C45.0287 26.3662 46.4039 26.6525 47.569 27.286C48.6216 27.8584 49.5338 28.7311 50.3244 29.9953L46.9953 32.1329C46.588 31.4951 46.1418 31.0001 45.6157 30.6511C44.9617 30.2172 44.2276 30.0375 43.3833 30.0375C42.4922 30.0375 41.7241 30.3216 41.1739 30.8306C40.622 31.3411 40.3201 32.0502 40.3201 32.8329C40.3201 33.7679 40.6216 34.4697 41.2685 35.0584C41.8746 35.61 42.7733 36.05 43.9148 36.5444L43.9166 36.5451L45.2555 37.1187C45.2555 37.1187 45.2555 37.1187 45.2555 37.1187C45.2556 37.1187 45.2556 37.1187 45.2556 37.1187C47.5187 38.0892 49.2169 39.0412 50.3535 40.2615C51.4683 41.4584 52.073 42.9474 52.073 45.0734C52.073 47.3398 51.1896 49.0592 49.7311 50.2232C48.2593 51.3977 46.1605 52.0377 43.6973 52.0377C39.1344 52.0377 36.1616 49.9797 34.606 47.2497ZM19.1884 45.689C19.5302 46.2753 19.9023 46.8467 20.3722 47.2948C20.9864 47.8805 21.7596 48.2506 22.8154 48.2506C23.7456 48.2506 24.6297 48.0712 25.267 47.422C25.8998 46.7774 26.1853 45.7754 26.1853 44.3849V26.672H30.5415V44.4573C30.5415 47.1316 29.7601 49.0023 28.4795 50.2084C27.1935 51.4195 25.3327 52.0278 23.0434 52.0278C19.19 52.0278 16.9054 50.1599 15.6621 47.8239L19.1884 45.689Z" fill="black" stroke="black"/>
</svg>
