<svg width="180" height="150" viewBox="0 0 56 50" fill="none" xmlns="http://www.w3.org/2000/svg">
<rect x="1.13193" y="0.5" width="53.5898" height="48.1998" fill="black" stroke="#0c0"/>
<path d="M7.8379 20.7546H15.7574V48.4302H7.8379V20.7546ZM11.8002 6.49997C14.374 6.49997 16.4642 8.59131 16.4642 11.1682C16.4642 13.7456 14.3739 15.8367 11.8002 15.8367C9.21498 15.8367 7.13081 13.7457 7.13081 11.1682C7.13081 8.59125 9.21497 6.49997 11.8002 6.49997Z" fill="#0c0" stroke="#0c0"/>
<path d="M49.1306 33.2031V48.4302H41.2213V34.985C41.2213 33.3448 41.2134 31.3429 40.5861 29.753C40.2667 28.9436 39.7782 28.2151 39.03 27.6924C38.2808 27.169 37.314 26.8819 36.0909 26.8819C34.8668 26.8819 33.8656 27.1214 33.0576 27.5693C32.2467 28.0188 31.66 28.6619 31.2424 29.4204C30.4201 30.9137 30.247 32.8674 30.247 34.7471V48.4302H22.3474V20.7546H29.8885V24.1748V24.6748H30.3885H30.5109H30.8126L30.9532 24.4079C32.0588 22.3101 34.8003 20.0429 38.9416 20.0429C43.3292 20.0429 45.8165 21.476 47.2463 23.7437C48.7094 26.0643 49.1306 29.3528 49.1306 33.2031Z" fill="#0c0" stroke="#0c0"/>
<rect x="1.13193" y="0.5" width="53.5898" height="48.1998" fill="black" stroke="#0c0"/>
<path d="M7.8379 20.7546H15.7574V48.4302H7.8379V20.7546ZM11.8002 6.49997C14.374 6.49997 16.4642 8.59131 16.4642 11.1682C16.4642 13.7456 14.3739 15.8367 11.8002 15.8367C9.21498 15.8367 7.13081 13.7457 7.13081 11.1682C7.13081 8.59125 9.21497 6.49997 11.8002 6.49997Z" fill="#0c0" stroke="#0c0"/>
<path d="M49.1306 33.2031V48.4302H41.2213V34.985C41.2213 33.3448 41.2134 31.3429 40.5861 29.753C40.2667 28.9436 39.7782 28.2151 39.03 27.6924C38.2808 27.169 37.314 26.8819 36.0909 26.8819C34.8668 26.8819 33.8656 27.1214 33.0576 27.5693C32.2467 28.0188 31.66 28.6619 31.2424 29.4204C30.4201 30.9137 30.247 32.8674 30.247 34.7471V48.4302H22.3474V20.7546H29.8885V24.1748V24.6748H30.3885H30.5109H30.8126L30.9532 24.4079C32.0588 22.3101 34.8003 20.0429 38.9416 20.0429C43.3292 20.0429 45.8165 21.476 47.2463 23.7437C48.7094 26.0643 49.1306 29.3528 49.1306 33.2031Z" fill="#0c0" stroke="#0c0"/>
</svg>
