<svg width="128" height="128" xmlns="http://www.w3.org/2000/svg">

 <g>
  <title>background</title>
  <rect fill="none" id="canvas_background" height="514" width="514" y="-1" x="-1"/>
 </g>
 <g>
  <title>Layer 1</title>
  <g id="svg_1">
   <rect stroke="#039f41" id="svg_10" height="79.797785" width="79.797785" y="25.056991" x="23.770226" stroke-width="2" fill="#000404"/>
   <g id="github-github">
    <path stroke-width="2" id="svg_2" d="m63.705882,29.0449c-19.791,0 -35.8398,16.0449 -35.8398,35.8399c0,15.8349 10.2695,29.2695 24.5097,34.0088c1.791,0.331 2.4492,-0.7784 2.4492,-1.7247c0,-0.8544 -0.0332,-3.6777 -0.0488,-6.6728c-9.9707,2.168 -12.0752,-4.2285 -12.0752,-4.2285c-1.6299,-4.1426 -3.9795,-5.2451 -3.9795,-5.2451c-3.2519,-2.2237 0.2456,-2.1778 0.2456,-2.1778c3.5982,0.253 5.4937,3.6953 5.4937,3.6953c3.1963,5.4776 8.3847,3.8936 10.4297,2.9776c0.3222,-2.3164 1.2509,-3.8975 2.2754,-4.793c-7.96,-0.9053 -16.3291,-3.9785 -16.3291,-17.7119c0,-3.9126 1.4004,-7.1104 3.6933,-9.6196c-0.3721,-0.9034 -1.5996,-4.5484 0.3477,-9.4854c0,0 3.0088,-0.9624 9.8574,3.6743c2.8594,-0.7939 5.9258,-1.1924 8.9707,-1.206c3.0459,0.0136 6.1143,0.4121 8.9785,1.206c6.8408,-4.6367 9.8467,-3.6743 9.8467,-3.6743c1.9502,4.937 0.7236,8.582 0.3516,9.4854c2.2978,2.5092 3.6884,5.707 3.6884,9.6196c0,13.7666 -8.3847,16.7959 -16.3652,17.6846c1.2852,1.1113 2.4297,3.2929 2.4297,6.6367c0,4.7949 -0.0401,8.6543 -0.0401,9.8349c0,0.9541 0.6456,2.0713 2.4629,1.7198c14.2315,-4.7442 24.4883,-18.1739 24.4883,-34.0039c0,-19.795 -16.0469,-35.8399 -35.8408,-35.8399z" fill="#039f41" clip-rule="evenodd" fill-rule="evenodd"/>
    <path stroke-width="2" id="svg_3" d="m41.441282,80.5029c-0.0791,0.1787 -0.3594,0.2315 -0.6153,0.1104c-0.2597,-0.1172 -0.4057,-0.3604 -0.3213,-0.5391c0.0772,-0.1836 0.3575,-0.2344 0.6172,-0.1113c0.2608,0.1172 0.4087,0.3613 0.3194,0.54l0,0zm-0.4415,-0.3271" fill="#039f41"/>
    <path stroke-width="2" id="svg_4" d="m42.892382,82.123c-0.1709,0.1583 -0.5049,0.084 -0.7314,-0.166c-0.2354,-0.25 -0.2788,-0.584 -0.1055,-0.7461c0.1768,-0.1562 0.5,-0.083 0.7354,0.167c0.2343,0.253 0.2802,0.584 0.1015,0.7451l0,0zm-0.3418,-0.3671" fill="#039f41"/>
    <path stroke-width="2" id="svg_5" d="m44.305482,84.1865c-0.2197,0.1533 -0.5791,0.0088 -0.8008,-0.3095c-0.2197,-0.3184 -0.2197,-0.7012 0.0049,-0.8545c0.2227,-0.1524 0.5762,-0.0147 0.8013,0.3017c0.2192,0.3233 0.2192,0.7061 -0.0054,0.8623l0,0zm0,0" fill="#039f41"/>
    <path stroke-width="2" id="svg_6" d="m46.241482,86.1797c-0.1967,0.2178 -0.6147,0.1592 -0.9213,-0.1367c-0.3135,-0.2881 -0.4004,-0.6992 -0.2041,-0.916c0.2002,-0.2168 0.6211,-0.1553 0.9287,0.1386c0.3115,0.2881 0.4062,0.7012 0.1967,0.9141l0,0zm0,0" fill="#039f41"/>
    <path stroke-width="2" id="svg_7" d="m48.911982,87.3389c-0.087,0.2802 -0.4893,0.4072 -0.8956,0.2881c-0.4052,-0.1231 -0.6699,-0.4512 -0.5888,-0.7344c0.084,-0.2832 0.4892,-0.4151 0.8984,-0.2881c0.4053,0.1221 0.6699,0.4482 0.586,0.7344l0,0zm0,0" fill="#039f41"/>
    <path stroke-width="2" id="svg_8" d="m51.845482,87.5527c0.0098,0.2959 -0.3339,0.5411 -0.7602,0.5469c-0.4282,0.0098 -0.7759,-0.2305 -0.7798,-0.5215c0,-0.2978 0.3359,-0.54 0.7647,-0.5478c0.4257,-0.0078 0.7753,0.2295 0.7753,0.5224l0,0zm0,0" fill="#039f41"/>
    <path stroke-width="2" id="svg_9" d="m54.574982,87.0889c0.0508,0.2881 -0.2451,0.5849 -0.6679,0.6631c-0.417,0.0761 -0.8018,-0.1016 -0.8545,-0.3877c-0.0518,-0.2959 0.25,-0.5918 0.6645,-0.669c0.4243,-0.0723 0.8042,0.1006 0.8579,0.3936l0,0zm0,0" fill="#039f41"/>
   </g>
  </g>
 </g>
</svg>