<svg width="128" height="128" xmlns="http://www.w3.org/2000/svg">

 <g>
  <title>background</title>
  <rect fill="none" id="canvas_background" height="514" width="514" y="-1" x="-1"/>
 </g>
 <g>
  <title>Layer 1</title>
  <g id="svg_1">
   <rect stroke="#039f41" id="svg_2" height="82.855353" width="82.855353" y="23.286592" x="22.715171" stroke-width="2" fill="#000404"/>
   <path stroke-width="2" d="m91.5713,58.4829l-6.2402,0c0.4541,1.7651 0.7236,3.6089 0.7236,5.5156c0,12.1831 -9.875,22.0562 -22.0552,22.0562c-12.1797,0 -22.0542,-9.8731 -22.0542,-22.0562c0,-1.9067 0.2695,-3.7505 0.7246,-5.5156l-6.2407,0l0,30.3286c0,1.5205 1.2349,2.7549 2.7598,2.7549l49.6215,0c1.5254,0 2.7608,-1.2344 2.7608,-2.7549l0,-30.3286zm0,-19.2969c0,-1.5219 -1.2354,-2.7568 -2.7608,-2.7568l-8.2685,0c-1.5225,0 -2.7568,1.2349 -2.7568,2.7568l0,8.272c0,1.522 1.2343,2.7568 2.7568,2.7568l8.2685,0c1.5254,0 2.7608,-1.2348 2.7608,-2.7568l0,-8.272zm-27.5718,11.0288c-7.6133,0 -13.7847,6.1705 -13.7847,13.7837c0,7.6128 6.1714,13.7867 13.7847,13.7867c7.6138,0 13.7857,-6.1739 13.7857,-13.7867c0,-7.6132 -6.1719,-13.7837 -13.7857,-13.7837m27.5718,49.625l-55.1421,0c-4.5664,0 -8.269,-3.7041 -8.269,-8.2734l0,-55.1372c0,-4.5669 3.7026,-8.269 8.269,-8.269l55.1421,0c4.5674,0 8.2685,3.7021 8.2685,8.269l0,55.1372c0,4.5693 -3.7011,8.2734 -8.2685,8.2734" fill="#039f41" clip-rule="evenodd" fill-rule="evenodd" id="instagram-instagram"/>
  </g>
 </g>
</svg>