<svg width="128" height="128" xmlns="http://www.w3.org/2000/svg">

 <g>
  <title>background</title>
  <rect fill="none" id="canvas_background" height="402" width="582" y="-1" x="-1"/>
 </g>
 <g>
  <title>Layer 1</title>
  <g stroke="null" id="svg_1">
   <rect stroke="#039f41" id="svg_4" height="76.716589" width="83.283771" y="22.656623" x="21.462585" stroke-width="2" fill="#000404"/>
   <g stroke="null" id="linkedin-linkedin">
    <path stroke="null" stroke-width="2" id="svg_2" d="m28.776692,51.7471l14.8686,0l0,47.7929l-14.8686,0l0,-47.7929zm7.4385,-23.7578c4.7514,0 8.6084,3.8593 8.6084,8.6137c0,4.7554 -3.857,8.6143 -8.6084,8.6143c-4.7705,0 -8.6172,-3.8589 -8.6172,-8.6143c0,-4.7544 3.8467,-8.6137 8.6172,-8.6137" fill="#039f41"/>
    <path stroke="null" stroke-width="2" id="svg_3" d="m53.2622,51.7471l14.2378,0l0,6.5337l0.2041,0c1.9805,-3.7574 6.8272,-7.7198 14.0537,-7.7198c15.0391,0 17.8184,9.896 17.8184,22.7671l0,26.2119l-14.8516,0l0,-23.2421c0,-5.542 -0.0957,-12.6719 -7.7187,-12.6719c-7.7286,0 -8.9082,6.04 -8.9082,12.2754l0,23.6386l-14.8355,0l0,-47.7929z" fill="#039f41"/>
   </g>
  </g>
 </g>
</svg>