<svg width="150" height="162" viewBox="0 0 57 63" fill="none" xmlns="http://www.w3.org/2000/svg">
<path d="M26.1741 1.10551L26.1766 1.10407C27.581 0.300206 29.4201 0.297277 30.8211 1.1035L30.8245 1.10544C34.0684 2.9384 37.3124 4.77003 40.5563 6.60159C45.1419 9.19067 49.7273 11.7796 54.3117 14.3721L54.3124 14.3725C55.6321 15.1158 56.5132 16.5892 56.4998 18.0966V18.101L56.4998 44.7154L56.4998 44.7185C56.5096 46.2849 55.5429 47.7969 54.1442 48.5268L54.137 48.5306L54.1299 48.5346C50.0248 50.849 45.9201 53.1653 41.8156 55.4815C38.1189 57.5675 34.4225 59.6535 30.7262 61.7378L30.7236 61.7392C29.2987 62.554 27.4285 62.4929 26.0419 61.6074L26.0328 61.6016L26.0235 61.5962C24.7509 60.8584 23.4753 60.1217 22.2002 59.3852C21.1338 58.7692 20.0677 58.1534 19.0038 57.5374C18.8978 57.4742 18.7886 57.4135 18.6867 57.3569C18.6669 57.3458 18.6473 57.335 18.6281 57.3243C18.5059 57.2561 18.3939 57.1925 18.2885 57.1256C18.2504 57.1014 18.2139 57.0772 18.1789 57.0529C18.2604 57.0232 18.3465 56.9966 18.447 56.9657L18.4702 56.9585C18.5792 56.9249 18.7058 56.8854 18.8307 56.8359C19.7878 56.5292 20.6682 56.0534 21.4974 55.6053C21.5549 55.5743 21.6122 55.5433 21.6692 55.5126L21.6924 55.5L21.7143 55.4851C21.7184 55.4823 21.7203 55.4818 21.7217 55.4815C21.7239 55.481 21.731 55.4797 21.7449 55.4811C21.7756 55.4843 21.8254 55.4996 21.8839 55.537L21.894 55.5435L21.9044 55.5494C22.7513 56.035 23.6011 56.5301 24.4527 57.0263C25.5979 57.6936 26.7463 58.3627 27.8953 59.013C28.2827 59.2358 28.665 59.1813 28.9537 59.0747C29.155 59.0004 29.3658 58.8763 29.5115 58.7905C29.5512 58.7671 29.5861 58.7465 29.6146 58.7307L29.6172 58.7292C33.2665 56.6667 36.9204 54.6065 40.5746 52.5461C44.5795 50.288 48.5847 48.0298 52.5842 45.7682C53.0522 45.5344 53.2962 45.0454 53.2681 44.5614C53.2715 38.9792 53.2712 33.3962 53.2708 27.8135C53.2705 24.628 53.2703 21.4427 53.2708 18.2577C53.3114 17.6974 52.9885 17.1989 52.5088 16.9712C48.1733 14.5296 43.8394 12.0861 39.5054 9.64258C36.0774 7.70983 32.6494 5.77707 29.2205 3.84521C29.0071 3.70442 28.757 3.62904 28.501 3.62866C28.2446 3.62829 27.994 3.7031 27.7801 3.84358C24.3364 5.78437 20.894 7.72651 17.4518 9.66852C13.1328 12.1052 8.81405 14.5417 4.49352 16.9752C4.02747 17.1971 3.68094 17.6848 3.72922 18.2609C3.73011 24.106 3.72981 29.9518 3.72951 35.7978C3.72936 38.7184 3.72922 41.639 3.72922 44.5596C3.71237 44.8047 3.76845 45.0495 3.89065 45.2631C4.01359 45.4779 4.1977 45.6511 4.4193 45.7606C5.78777 46.5366 7.15785 47.3093 8.52734 48.0816C9.22989 48.4778 9.9323 48.8739 10.6342 49.2704L10.6342 49.2705L10.6431 49.2753C11.8684 49.9348 13.4634 50.3792 14.9462 49.8258C16.2829 49.3448 17.21 47.9943 17.1868 46.5767C17.1919 42.4184 17.1909 38.2639 17.1899 34.1099C17.1889 29.5396 17.1878 24.9699 17.1948 20.3966L17.1948 20.3779L17.1935 20.3592C17.1921 20.34 17.1987 20.3064 17.2383 20.2702C17.2799 20.2321 17.329 20.2191 17.3625 20.2223L17.3882 20.2248L17.414 20.2247C18.4119 20.2179 19.4043 20.2113 20.3945 20.2273L20.4042 20.2274L20.4139 20.2272C20.439 20.2267 20.4718 20.2356 20.5075 20.2819C20.5471 20.3333 20.5654 20.4029 20.5579 20.4602L20.5536 20.4926L20.5536 20.5253C20.5521 23.7624 20.5532 26.9989 20.5542 30.2353C20.5561 35.7822 20.5579 41.3285 20.5469 46.8754L20.5469 46.877C20.5494 49.1132 19.6294 51.4401 17.6908 52.4668C15.1978 53.7574 12.0742 53.4975 9.54726 52.2269L9.54595 52.2263C8.1343 51.5217 6.77945 50.7474 5.41048 49.965C4.57181 49.4856 3.72784 49.0033 2.86226 48.5321L2.86231 48.532L2.85303 48.5272C1.45321 47.8026 0.490454 46.2855 0.500193 44.7187V44.7156L0.500215 18.101L0.50017 18.0963C0.485656 16.5573 1.40207 15.0568 2.76288 14.3243L2.76293 14.3244L2.77163 14.3195C8.65375 10.9999 14.5351 7.67845 20.4163 4.35712C22.3356 3.27321 24.2548 2.18931 26.1741 1.10551Z" fill="#00CC00" stroke="black"/>
<path d="M26.2548 22.2044C27.9198 20.5281 30.3566 19.8508 32.7699 19.605C36.1579 19.3871 39.6742 19.4886 42.6018 21.0913L42.6037 21.0923C44.7624 22.2621 46.0046 24.7334 46.0672 27.2015C46.0587 27.2159 46.0436 27.2324 46.0163 27.2496C45.9655 27.2816 45.8943 27.2999 45.8278 27.2951L45.8102 27.2938L45.7926 27.2938C45.4752 27.2934 45.1605 27.2946 44.8472 27.2958C44.1749 27.2983 43.5096 27.3008 42.8402 27.2872L42.8255 27.2869L42.8108 27.2875C42.7876 27.2883 42.7749 27.2841 42.7659 27.2797C42.755 27.2745 42.7375 27.263 42.7162 27.2379C42.6694 27.1829 42.6261 27.0877 42.6103 26.9765L42.6075 26.9566L42.603 26.937C42.3012 25.5959 41.5532 24.1863 40.1863 23.4858L40.1863 23.4858L40.1821 23.4837C38.2985 22.5406 36.1409 22.5626 34.2344 22.5821C34.168 22.5827 34.1019 22.5834 34.0361 22.584L34.0252 22.5841L34.0144 22.5847C32.5819 22.6608 30.8817 22.7834 29.5211 23.7272C28.356 24.5261 28.0489 26.082 28.4362 27.2901L28.4429 27.3111L28.4515 27.3314C28.6705 27.8519 29.0745 28.174 29.4801 28.3885C29.8398 28.5787 30.2417 28.7042 30.5663 28.8056C30.5987 28.8158 30.6304 28.8257 30.6612 28.8354L30.673 28.8391L30.6849 28.8422C32.5093 29.3193 34.3813 29.5671 36.2167 29.81C36.4813 29.845 36.7451 29.8799 37.008 29.9154C39.1083 30.199 41.1555 30.5201 43.1141 31.2074L43.1164 31.2082C44.7116 31.7594 46.1673 32.7971 46.6682 34.3268C47.3716 36.5329 47.0474 39.131 45.526 40.8477L45.5236 40.8504C44.2736 42.2817 42.4272 43.0872 40.5185 43.5322C37.9834 44.0972 35.3384 44.1146 32.7266 43.8603C30.2719 43.5801 27.8101 42.9417 26.0067 41.3501L26.0037 41.3474C24.4947 40.0371 23.7369 37.9731 23.8103 35.9562C23.8115 35.9423 23.8192 35.9171 23.8563 35.8886C23.8983 35.8562 23.9523 35.8415 23.9947 35.8451L24.0181 35.8471L24.0415 35.8469C25.034 35.8389 26.0245 35.8362 27.0139 35.8482L27.0348 35.8485L27.0556 35.847C27.0912 35.8445 27.1243 35.8551 27.1591 35.8908C27.1987 35.9314 27.2288 35.9957 27.2325 36.0645L27.2338 36.0888L27.2375 36.1128C27.4278 37.3582 27.9109 38.793 29.1323 39.6235L29.1322 39.6236L29.1424 39.6301C31.1218 40.9071 33.5528 40.9319 35.6754 40.9535C35.8783 40.9555 36.0784 40.9576 36.275 40.9607L36.29 40.9609L36.3051 40.9602C36.4039 40.9559 36.504 40.9516 36.6051 40.9473C37.4695 40.9108 38.4122 40.8709 39.3201 40.7072C40.3415 40.5231 41.36 40.1765 42.2302 39.4717L42.2376 39.4656L42.2449 39.4593C43.2423 38.586 43.5011 37.1725 43.2511 36.0067L43.2481 35.9927L43.2443 35.9789C43.0828 35.3918 42.6976 34.9818 42.2755 34.6927C41.859 34.4075 41.3793 34.2208 40.9739 34.0833L40.9739 34.0832L40.9641 34.0801C38.9837 33.4536 36.928 33.2351 34.9311 33.0229C34.8293 33.0121 34.7277 33.0013 34.6263 32.9905C32.5156 32.765 30.4723 32.5233 28.5323 31.8226L28.529 31.8214C26.9728 31.2715 25.5574 30.261 25.0046 28.7841C24.1877 26.5671 24.579 23.8581 26.2512 22.2079L26.2513 22.2079L26.2548 22.2044Z" fill="#00CC00" stroke="black"/>
</svg>
