<svg width="180" height="180" viewBox="0 0 73 73" fill="none" xmlns="http://www.w3.org/2000/svg">
<path d="M67.5396 17.758L66.975 19.0754C60.1685 15.5428 54.4369 15.3874 49.8617 17.5856C45.2003 19.8252 41.8534 24.4545 39.794 30.1323C35.7774 41.2062 36.5542 56.5496 42.3315 67.0251H13.3026C14.9054 38.2311 24.3299 21.7726 35.3657 14.6012C46.3447 7.46667 59.0283 9.44555 67.5396 17.758Z" fill="#00CC00" stroke="black"/>
<path d="M62.7667 19.5227L60.725 19.3185V18.5559L62.7667 18.9643V19.5227ZM63.375 12.1685L61.0292 10.6757V10.1071L63.375 11.8131V12.1685ZM51.9739 21.5708L51.1722 19.767L52.9129 19.1868L53.515 20.9929L51.9739 21.5708ZM46.5719 8.01686L45.7552 5.97519H48.903L49.5155 8.01686H46.5719ZM44.4367 25.5756L45.5655 24.2588L47.1512 26.7507L46.2297 28.0409L44.4367 25.5756ZM32.3701 9.57841L35.1285 7.96935L37.0173 10.8026L34.493 12.4089L32.3701 9.57841ZM40.419 35.9946L41.0272 33.7648L43.2539 35.7689L42.8545 37.7659L40.419 35.9946ZM20.1357 20.8715L22.3165 17.4793L25.4889 20.1637L23.309 23.3125L20.1357 20.8715ZM42.9287 48.2549L39.4333 47.0898V44.5585L42.7207 45.9674L42.9287 48.2549ZM16.7188 34.9503L15.5032 38.5969L11.293 37.1109L12.7538 33.2156L16.7188 34.9503ZM42.3564 60.9812L41.4741 58.1139L45.8542 58.8439L46.7285 61.467L42.3564 60.9812ZM6.07345 57.3492L7.08702 52.2813L11.6201 53.0368L11.1132 57.8532L6.07345 57.3492Z" fill="#00CC00" stroke="black"/>
</svg>
