<svg width="180" height="172" viewBox="0 0 80 72" fill="none" xmlns="http://www.w3.org/2000/svg">
<path d="M1 35.7232C1 40.8903 7.47085 45.7872 17.3918 48.8239C15.1023 58.9356 16.1199 66.9804 20.6033 69.5561C21.6368 70.1602 22.8451 70.4464 24.1647 70.4464L24.1647 66.901C23.4334 66.901 22.8451 66.7579 22.3522 66.4876C20.19 65.2475 19.2519 60.5255 19.9833 54.4521C20.1582 52.9576 20.4444 51.3836 20.7941 49.7778C23.9103 50.541 27.3127 51.1292 30.8899 51.5108C33.0363 54.4521 35.2621 57.1231 37.5039 59.4603C32.3208 64.2776 27.4558 66.9169 24.1488 66.9168L24.1488 70.4623C28.521 70.4623 34.2446 67.3461 40.0318 61.9405C45.819 67.3143 51.5426 70.3987 55.9148 70.3987L55.9148 66.8533C52.6237 66.8533 47.7428 64.2299 42.5597 59.4444C44.7856 57.1072 47.0114 54.4521 49.126 51.5108C52.7191 51.1292 56.1215 50.541 59.2377 49.7619C59.6033 51.3518 59.8736 52.894 60.0644 54.3726C60.8117 60.446 59.8895 65.168 57.7432 66.424C57.2662 66.7102 56.6461 66.8374 55.9148 66.8374L55.9148 70.3828C57.2503 70.3828 58.4586 70.0966 59.508 69.4925C63.9755 66.9169 64.9772 58.8879 62.6718 48.808C72.5609 45.7554 79 40.8745 79 35.7232C79 30.5561 72.5292 25.6592 62.6082 22.6225C64.8977 12.5108 63.8802 4.46596 59.3967 1.89034C58.3632 1.28618 57.1549 0.999993 55.8194 0.999992C51.4472 0.999992 45.7236 4.11618 39.9364 9.52181C34.1492 4.14798 28.4256 1.06359 24.0534 1.06359C22.7179 1.06359 21.5096 1.34977 20.4603 1.95393C15.9927 4.52955 14.991 12.5585 17.2964 22.6384C7.43906 25.6751 1.00001 30.572 1 35.7232ZM21.7004 46.3278C22.2886 44.2768 23.02 42.1623 23.8467 40.0477C24.4986 41.3196 25.1822 42.5915 25.9295 43.8634C26.6608 45.1354 27.4399 46.3755 28.2189 47.5838C25.9613 47.2499 23.7831 46.8365 21.7004 46.3278ZM28.9821 29.3954C30.2222 27.2491 31.4941 25.214 32.8137 23.3221C35.1826 23.1154 37.5834 23.0041 40 23.0041C42.4007 23.0041 44.8015 23.1154 47.1545 23.3062C48.4741 25.1981 49.7619 27.2173 51.002 29.3477C52.2104 31.4305 53.3074 33.5451 54.309 35.6755C53.3233 37.806 52.2104 39.9364 51.0179 42.0192C49.7778 44.1655 48.5059 46.2006 47.1863 48.0926C44.8174 48.2992 42.4166 48.4105 40 48.4105C37.5993 48.4105 35.1985 48.2992 32.8455 48.1084C31.5259 46.2165 30.2381 44.1973 28.998 42.0669C27.7896 39.9841 26.6926 37.8696 25.691 35.7391C26.6926 33.6086 27.7897 31.4782 28.9821 29.3954ZM23.8467 31.4623C22.9882 29.3318 22.2568 27.2014 21.6527 25.1345C23.7354 24.6258 25.9295 24.1965 28.203 23.8626C27.424 25.0868 26.6449 26.3428 25.9136 27.6307C25.1822 28.9026 24.4986 30.1904 23.8467 31.4623ZM39.9682 14.4982C41.4468 16.0245 42.9254 17.7256 44.3881 19.5858C42.9572 19.5222 41.4945 19.4745 40.0159 19.4745C38.5214 19.4745 37.0428 19.5063 35.596 19.5858C37.0269 17.7256 38.5055 16.0245 39.9682 14.4982ZM51.797 23.8626C54.0546 24.1965 56.2328 24.6099 58.3155 25.1186C57.7273 27.1696 56.9959 29.2841 56.1692 31.3987C55.5173 30.1268 54.8337 28.8549 54.0864 27.583C53.3392 26.311 52.576 25.0709 51.797 23.8626ZM40.0477 56.9482C38.5691 55.4219 37.0905 53.7208 35.6278 51.8606C37.0587 51.9242 38.5214 51.9719 40 51.9719C41.4945 51.9719 42.9731 51.9401 44.4199 51.8606C42.989 53.7208 41.5104 55.4219 40.0477 56.9482ZM51.8129 47.5838C52.5919 46.3596 53.371 45.1036 54.1023 43.8157C54.8337 42.5438 55.5173 41.2719 56.1692 40C57.0277 42.1305 57.7591 44.2609 58.3632 46.3278C56.2805 46.8206 54.0864 47.2499 51.8129 47.5838ZM66.2014 27.6784C71.8296 30.0791 75.4704 33.2271 75.4704 35.7232C75.4704 38.2193 71.8296 41.3832 66.2014 43.7681C64.8341 44.3563 63.3396 44.881 61.7974 45.3738C60.8912 42.2577 59.6987 39.0143 58.2201 35.6914C59.6828 32.3844 60.8594 29.157 61.7497 26.0567C63.3237 26.5495 64.8182 27.0901 66.2014 27.6784ZM57.6478 4.95882C59.81 6.19894 60.7481 10.9209 60.0167 16.9943C59.8418 18.4888 59.5556 20.0628 59.2059 21.6686C56.0897 20.9054 52.6873 20.3172 49.1101 19.9356C46.9637 16.9943 44.7379 14.3233 42.4961 11.9861C47.6792 7.16877 52.5442 4.52955 55.8512 4.52955C56.5667 4.54545 57.1708 4.68854 57.6478 4.95882ZM19.9356 17.0738C19.1883 11.0004 20.1105 6.27843 22.2568 5.02242C22.7338 4.73623 23.3539 4.60904 24.0852 4.60904C27.3763 4.60904 32.2572 7.23236 37.4403 12.0179C35.2144 14.3551 32.9886 17.0102 30.874 19.9515C27.2809 20.3331 23.8785 20.9213 20.7623 21.7004C20.3967 20.0946 20.1105 18.5524 19.9356 17.0738ZM13.8145 27.6784C15.1818 27.0901 16.6763 26.5654 18.2185 26.0726C19.1247 29.1887 20.3172 32.4321 21.7958 35.755C20.3331 39.062 19.1565 42.2894 18.2662 45.3897C16.6922 44.8969 15.1977 44.3563 13.7986 43.768C8.17041 41.3673 4.52956 38.2193 4.52956 35.7232C4.54546 33.2271 8.1863 30.0632 13.8145 27.6784Z" fill="#00CC00"/>
<path d="M62.0864 26.6884C61.2267 29.5966 60.1199 32.6101 58.7668 35.6908C60.1353 38.7873 61.2571 41.8166 62.1318 44.7404C63.4921 44.2962 64.8003 43.8265 66.0038 43.3088L66.0063 43.3077C68.7875 42.1292 71.0555 40.767 72.6187 39.4098C74.2064 38.0313 74.9704 36.744 74.9704 35.7232C74.9704 34.7028 74.2069 33.4195 72.619 32.0428C71.0556 30.6873 68.7873 29.325 66.0053 28.1383L62.0864 26.6884ZM62.0864 26.6884C63.4686 27.1348 64.7822 27.6182 66.0052 28.1383L62.0864 26.6884ZM20.3525 69.9886C21.3351 70.5627 22.4524 70.8656 23.6488 70.9322L23.6488 70.9623L24.1488 70.9623C26.4472 70.9623 29.0545 70.1458 31.7968 68.6687C34.4372 67.2465 37.2299 65.1973 40.0328 62.6212C42.8356 65.1817 45.6282 67.2154 48.2683 68.6258C51.0108 70.0909 53.6175 70.8987 55.9148 70.8987L56.4148 70.8987L56.4148 70.8698C57.6307 70.8055 58.7561 70.5023 59.7574 69.9258L59.7577 69.9256C62.1824 68.5277 63.5938 65.695 64.1246 62.0361C64.6411 58.4753 64.3396 54.0456 63.2605 49.1476C68.045 47.6289 72.0305 45.6732 74.8541 43.4451C77.7553 41.1558 79.5 38.5189 79.5 35.7232C79.5 32.9192 77.7469 30.2743 74.8337 27.9811C71.9983 25.749 67.9969 23.793 63.1962 22.2815C64.2677 17.368 64.5615 12.9265 64.037 9.35769C63.4983 5.692 62.0793 2.85602 59.6479 1.45803C58.5248 0.801748 57.2262 0.49999 55.8194 0.49999C53.521 0.49999 50.9137 1.31649 48.1714 2.79358C45.531 4.21579 42.7383 6.26497 39.9354 8.84111C37.1326 6.28056 34.34 4.24691 31.6999 2.8365C28.9574 1.37142 26.3507 0.563586 24.0534 0.563586C22.6453 0.563586 21.348 0.865855 20.2108 1.52062L20.2105 1.52076C17.7858 2.91866 16.3744 5.75144 15.8436 9.41028C15.3271 12.9711 15.6286 17.4007 16.7076 22.2985C11.9384 23.8101 7.96092 25.7658 5.14153 27.9957C2.24436 30.2871 0.500003 32.9278 0.500003 35.7232C0.500003 38.5272 2.25308 41.1721 5.16627 43.4653C8.00175 45.6974 12.0031 47.6534 16.8038 49.1649C15.7323 54.0784 15.4385 58.5199 15.963 62.0887C16.5018 65.7546 17.9208 68.5907 20.3525 69.9886ZM55.9148 66.3374L55.4782 66.3374C54.0229 66.2339 52.224 65.6255 50.1878 64.5053C48.0602 63.3349 45.7086 61.6251 43.2723 59.4185C45.3506 57.2052 47.4231 54.7186 49.4011 51.9841C52.7433 51.6205 55.9223 51.0782 58.8615 50.3692C59.1676 51.7674 59.3994 53.1265 59.5683 54.435C59.9374 57.4357 59.8907 60.079 59.498 62.1099C59.0991 64.1727 58.3691 65.4784 57.4906 65.9924L57.4906 65.9924L57.4859 65.9952C57.115 66.2178 56.5956 66.3374 55.9148 66.3374ZM30.6168 51.9842C32.6224 54.7184 34.6973 57.2197 36.7912 59.4367C34.3546 61.6586 32.0063 63.3798 29.8805 64.5577C27.8458 65.6852 26.0469 66.2972 24.5859 66.401L24.1647 66.401C23.5031 66.401 23.002 66.2727 22.5969 66.0515C21.7144 65.5427 20.9792 64.2429 20.5732 62.1855C20.1728 60.1566 20.1183 57.513 20.4797 54.5119L20.4799 54.5102C20.6343 53.1912 20.8771 51.805 21.1757 50.384C24.1129 51.0791 27.2896 51.6208 30.6168 51.9842ZM59.5203 16.9345L59.5201 16.9362C59.3658 18.2552 59.1229 19.6414 58.8243 21.0624C55.8871 20.3673 52.7104 19.8256 49.3832 19.4622C47.3776 16.728 45.3027 14.2267 43.2088 12.0097C45.6454 9.78776 47.9937 8.06663 50.1195 6.88868C52.3595 5.6475 54.3137 5.03097 55.8459 5.02955C56.5009 5.04481 57.0157 5.17566 57.4001 5.39318C58.2839 5.90076 59.0203 7.20115 59.4268 9.26089C59.8272 11.2898 59.8817 13.9334 59.5203 16.9345ZM20.4321 17.0151L20.4319 17.0127C20.0626 14.0115 20.1093 11.3677 20.502 9.33651C20.9009 7.27374 21.6309 5.96802 22.5094 5.45398L22.5141 5.45116C22.885 5.22863 23.4044 5.10904 24.0852 5.10904C25.6108 5.10904 27.5673 5.72198 29.8123 6.95698C31.9398 8.12744 34.2914 9.83725 36.7277 12.0438C34.6494 14.2571 32.5769 16.7437 30.5989 19.4782C27.2569 19.8418 24.078 20.384 21.139 21.093C20.8292 19.6783 20.5864 18.3195 20.4321 17.0151ZM19.9356 17.0738C19.1883 11.0004 20.1105 6.27843 22.2568 5.02242L19.9356 17.0738ZM14.0096 28.1387L14.0121 28.1376C15.2156 27.6199 16.5238 27.1502 17.8841 26.706C18.7588 29.6298 19.8807 32.6591 21.2491 35.7556C19.896 38.8363 18.7892 41.8498 17.9295 44.758C16.5474 44.3117 15.2317 43.8281 13.9935 43.3076C11.2121 42.121 8.9442 40.7589 7.38105 39.4036C5.79411 38.0277 5.03051 36.7452 5.02956 35.7251C5.03671 34.7027 5.80606 33.4147 7.39499 32.0368C8.96031 30.6794 11.2284 29.3172 14.0096 28.1387ZM27.2012 46.9205C25.5262 46.6501 23.8994 46.3335 22.3274 45.9639C22.7845 44.4232 23.3205 42.8478 23.9155 41.2647C24.4156 42.2134 24.9385 43.1637 25.4973 44.1149C26.0463 45.0695 26.6211 46.0051 27.2012 46.9205ZM29.4154 29.6449C30.608 27.5809 31.8282 25.6235 33.0904 23.8001C35.3699 23.6075 37.6779 23.5041 40 23.5041C42.3057 23.5041 44.6129 23.6074 46.879 23.7857C48.1434 25.6099 49.3784 27.5523 50.5696 29.5986C51.7302 31.5992 52.7879 33.6301 53.7569 35.6771C52.8026 37.7221 51.731 39.7673 50.5846 41.7697C49.392 43.8337 48.1718 45.7911 46.9096 47.6145C44.6301 47.8071 42.3221 47.9105 40 47.9105C37.6943 47.9105 35.3871 47.8072 33.121 47.6289C31.8565 45.8045 30.6214 43.8619 29.4301 41.8153C28.2699 39.8155 27.2125 37.7854 26.2438 35.7391C27.2129 33.691 28.2701 31.6453 29.4154 29.6449ZM25.4795 27.3826C24.9308 28.3368 24.4094 29.2988 23.9089 30.2548C23.2941 28.6541 22.7518 27.0592 22.2819 25.4977C23.8613 25.125 25.5033 24.7983 27.1938 24.5244C26.6102 25.4571 26.0317 26.4102 25.4795 27.3826ZM39.97 15.2221C41.0866 16.3965 42.2036 17.6718 43.3138 19.0414C42.2296 19.0013 41.1278 18.9745 40.0159 18.9745C38.8881 18.9745 37.768 18.9925 36.6624 19.0355C37.7525 17.6693 38.8643 16.3959 39.97 15.2221ZM54.5175 27.3297C53.958 26.3773 53.3896 25.4426 52.8121 24.5255C54.488 24.7959 56.1157 25.1128 57.6885 25.4825C57.2314 27.0232 56.6954 28.5986 56.1004 30.1817C55.6 29.2324 55.0767 28.2815 54.5175 27.3297ZM43.3535 52.4109C42.2634 53.7771 41.1516 55.0506 40.0459 56.2243C38.9293 55.0499 37.8123 53.7746 36.7022 52.405C37.7863 52.4451 38.8881 52.4719 40 52.4719C41.1278 52.4719 42.2479 52.4539 43.3535 52.4109ZM52.822 46.9221C53.4057 45.9894 53.9842 45.0362 54.5364 44.0638C55.0845 43.1107 55.6056 42.158 56.1064 41.206C56.721 42.8061 57.2632 44.4003 57.733 45.9613C56.1531 46.3238 54.5115 46.6487 52.822 46.9221Z" stroke="black" stroke-opacity="0.5"/>
<path d="M40.0161 28.4575C36.0033 28.4575 32.7503 31.7105 32.7503 35.7233C32.7503 39.7361 36.0033 42.9891 40.0161 42.9891C44.0289 42.9891 47.2819 39.7361 47.2819 35.7233C47.2819 31.7105 44.0289 28.4575 40.0161 28.4575Z" fill="#00CC00"/>
<path d="M40.0161 27.9575C35.7272 27.9575 32.2503 31.4343 32.2503 35.7233C32.2503 40.0122 35.7272 43.4891 40.0161 43.4891C44.3051 43.4891 47.7819 40.0122 47.7819 35.7233C47.7819 31.4344 44.3051 27.9575 40.0161 27.9575Z" stroke="black" stroke-opacity="0.5"/>
</svg>
