<svg width="150" height="150" viewBox="0 0 57 57" fill="none" xmlns="http://www.w3.org/2000/svg">
<path d="M55.3331 12.0421L44.7654 52.1385L44.2145 18.2442L44.4841 18.33L44.3108 17.8034L55.3331 12.0421ZM44.19 16.7381L43.994 16.8406L39.1017 1.97355L55.0615 11.0556L44.19 16.7381ZM21.7805 10.0552L37.9304 1.61331L42.9225 16.7836L21.7805 10.0552ZM1.47857 39.0644L3.13103 20.7759L12.5456 33.2792L1.47857 39.0644ZM2.13351 39.8504L12.4681 34.4481L12.4681 34.4482L13.2579 34.0354L41.0878 54.0607L2.13351 39.8504ZM43.2165 18.3754L43.8083 54.7862L14.2497 33.517L43.2165 18.3754ZM42.4085 17.6694L14.1312 32.4505L20.8146 10.7972L42.4085 17.6694ZM19.6541 11.1667L13.1105 32.3669L3.5038 19.6085L19.6541 11.1667Z" fill="#00CC00" stroke="black"/>
<path d="M37.7697 1.67001C41.4425 3.76002 45.1153 5.85012 48.7882 7.94013C51.0768 9.24246 53.3653 10.5448 55.6539 11.8471C55.6539 11.3322 55.6539 10.8172 55.6539 10.3022C51.7677 12.3335 47.8815 14.3648 43.9953 16.3962C43.7475 16.5257 43.4997 16.6552 43.2519 16.7847C42.2291 17.3194 43.1337 18.8633 44.155 18.3296C48.0412 16.2983 51.9274 14.267 55.8135 12.2356C56.0613 12.1061 56.3091 11.9766 56.5569 11.8471C56.1189 11.5103 55.6809 11.1736 55.2428 10.8369C54.5947 13.2959 53.9466 15.7549 53.2985 18.2139C51.8921 23.5502 50.4856 28.8866 49.0791 34.2229C47.7211 39.3756 46.3631 44.5283 45.005 49.681C44.4906 51.6326 43.9763 53.5844 43.4619 55.5361C43.8999 55.3579 44.3379 55.1797 44.776 55.0014C42.3839 53.2801 39.9919 51.5589 37.5998 49.8377C32.9366 46.4823 28.2734 43.1268 23.6102 39.7714C20.4455 37.4941 17.2806 35.2168 14.1157 32.9396C13.9943 32.8522 13.8728 32.7647 13.7512 32.6773C13.8582 32.7843 13.9652 32.8913 14.0721 32.9982C11.4193 29.4655 8.75729 25.9396 6.09985 22.4104C5.24069 21.2694 4.38154 20.1284 3.52229 18.9872C3.4153 19.3952 3.30831 19.8033 3.2014 20.2112C6.99175 18.23 10.782 16.2487 14.5723 14.2675C17.2557 12.8649 19.9391 11.4623 22.6224 10.0596C27.2744 7.62792 31.9264 5.19618 36.5785 2.76453C37.2766 2.39963 37.9746 2.03473 38.6726 1.66992C38.2346 1.49172 37.7966 1.31352 37.3585 1.13523C38.7394 5.33171 40.1203 9.5281 41.5012 13.7245C41.9477 15.0813 42.3942 16.438 42.8407 17.7948C43.2075 17.4281 43.5743 17.0612 43.9411 16.6944C40.1992 15.5035 36.4573 14.3127 32.7154 13.1218C28.7292 11.8532 24.7429 10.5846 20.7567 9.31599C20.7456 9.31242 20.7345 9.30893 20.7234 9.30544C20.2481 9.15416 19.7623 9.47881 19.623 9.93021C18.4648 13.6824 17.3066 17.4346 16.1486 21.1868C14.9148 25.184 13.6811 29.1812 12.4473 33.1784C12.4439 33.1895 12.4404 33.2006 12.437 33.2118C12.1941 33.9987 13.0853 34.5701 13.7511 34.222C16.5682 32.7496 19.3852 31.277 22.2022 29.8045C27.2594 27.161 32.3165 24.5176 37.3736 21.8741C39.634 20.6926 41.8944 19.511 44.1547 18.3295C43.706 18.0721 43.2573 17.8146 42.8087 17.5571C42.8565 20.5036 42.9045 23.4502 42.9523 26.3968C43.0456 32.141 43.139 37.8852 43.2324 43.6294C43.2958 47.5279 43.3591 51.4263 43.4225 55.3248C43.4249 55.4744 43.4273 55.6241 43.4299 55.7738C43.8073 55.4863 44.1848 55.1987 44.5622 54.9112C42.1732 54.0397 39.7843 53.1682 37.3953 52.2967C32.2108 50.4055 27.0264 48.5142 21.8421 46.623C16.8362 44.7969 11.8302 42.9708 6.82419 41.1446C4.92813 40.4529 3.03197 39.7612 1.1359 39.0696C1.20711 39.6146 1.27841 40.1596 1.34962 40.7046C5.23568 38.6732 9.12175 36.6418 13.0078 34.6104C13.2556 34.4808 13.5034 34.3513 13.7512 34.2219C14.774 33.6872 13.8694 32.1431 12.8481 32.6769C8.96206 34.7083 5.076 36.7397 1.18994 38.7712C0.942138 38.9007 0.694339 39.0302 0.446539 39.1597C0.895262 39.4171 1.34398 39.6746 1.79262 39.9321C2.1729 35.7235 2.55319 31.5148 2.93348 27.306C3.17036 24.6836 3.40734 22.0611 3.64431 19.4386C3.68824 18.9522 3.20418 18.544 2.74973 18.544C2.2289 18.544 1.89898 18.9531 1.85515 19.4386C1.47486 23.6473 1.09457 27.856 0.714287 32.0648C0.477402 34.6872 0.240428 37.3097 0.00345284 39.9321C-0.0613149 40.6489 0.799811 40.992 1.34953 40.7046C5.23559 38.6732 9.12166 36.6418 13.0077 34.6104C13.2555 34.4808 13.5033 34.3513 13.7511 34.2219C14.7739 33.6872 13.8693 32.1431 12.848 32.6769C8.96197 34.7083 5.07591 36.7397 1.18985 38.7712C0.942049 38.9007 0.69425 39.0302 0.446451 39.1597C-0.293995 39.5468 -0.016675 40.5479 0.660166 40.7947C3.04915 41.6662 5.43813 42.5377 7.82711 43.4092C13.0116 45.3004 18.1959 47.1917 23.3803 49.0829C28.3862 50.909 33.3922 52.7351 38.3982 54.5613C40.2943 55.253 42.1904 55.9447 44.0865 56.6363C44.6344 56.8362 45.2278 56.3213 45.2188 55.7737C45.171 52.8271 45.123 49.8805 45.0752 46.9339C44.9819 41.1897 44.8885 35.4456 44.7952 29.7014C44.7318 25.8029 44.6684 21.9045 44.6051 18.006C44.6026 17.8563 44.6002 17.7066 44.5977 17.5569C44.5864 16.8577 43.8523 16.4704 43.2516 16.7844C40.4346 18.2569 37.6176 19.7295 34.8005 21.2019C29.7434 23.8454 24.6863 26.4888 19.6291 29.1323C17.3688 30.3139 15.1084 31.4954 12.848 32.6769C13.2861 33.0137 13.7241 33.3504 14.1622 33.6872C15.3203 29.935 16.4785 26.1828 17.6366 22.4306C18.8704 18.4334 20.1041 14.4361 21.3379 10.439C21.3414 10.4279 21.3448 10.4168 21.3482 10.4056C20.9814 10.6139 20.6145 10.8221 20.2478 11.0304C23.9896 12.2212 27.7316 13.4121 31.4734 14.603C35.4597 15.8716 39.4459 17.1402 43.4322 18.4088C43.4433 18.4124 43.4544 18.4159 43.4655 18.4193C44.0994 18.6211 44.7761 17.9577 44.5659 17.3189C43.185 13.1224 41.804 8.92605 40.4232 4.72956C39.9767 3.37275 39.5302 2.01603 39.0837 0.659218C38.8978 0.0942902 38.2983 -0.15172 37.7696 0.124527C33.9793 2.10576 30.1891 4.0869 26.3989 6.06813C23.7155 7.47074 21.0322 8.87336 18.3488 10.276C13.6967 12.7077 9.04463 15.1394 4.39254 17.5711C3.6945 17.936 2.99645 18.3009 2.29832 18.6657C1.90238 18.8726 1.69323 19.5123 1.97744 19.8897C4.63488 23.4189 7.29233 26.9481 9.94968 30.4773C10.5883 31.3255 11.227 32.1737 11.8657 33.0219C12.1543 33.4052 12.4561 33.9393 12.8502 34.2229C13.5648 34.7371 14.2794 35.2513 14.9939 35.7655C19.0263 38.6671 23.0588 41.5687 27.0912 44.4703C31.4535 47.6092 35.8158 50.7482 40.1781 53.8871C41.4097 54.7733 42.6413 55.6594 43.8728 56.5457C44.3459 56.8861 45.0499 56.5316 45.187 56.011C45.8351 53.552 46.4831 51.0929 47.1313 48.634C48.5377 43.2977 49.9442 37.9613 51.3507 32.6249C52.7087 27.4722 54.0667 22.3195 55.4248 17.1668C55.9391 15.2152 56.4535 13.2635 56.9679 11.3118C57.1745 10.5281 56.3422 9.94175 55.6538 10.3016C51.7676 12.3329 47.8814 14.3642 43.9952 16.3955C43.7474 16.5251 43.4996 16.6546 43.2518 16.784C42.2291 17.3187 43.1337 18.8627 44.1549 18.329C48.0411 16.2977 51.9273 14.2663 55.8135 12.235C56.0613 12.1055 56.3091 11.9759 56.5569 11.8465C57.1553 11.5337 57.122 10.6232 56.5569 10.3016C52.8841 8.21154 49.2112 6.12144 45.5384 4.03143C43.2499 2.7291 40.9613 1.42677 38.6727 0.124437C37.6685 -0.446395 36.7674 1.09962 37.7697 1.67001Z" fill="#040404"/>
</svg>
