<svg width="150" height="150" viewBox="0 0 57 57" fill="none" xmlns="http://www.w3.org/2000/svg">
<rect x="1.4864" y="1.2717" width="54.9895" height="55.2283" fill="#040404" stroke="#0c0"/>
<path d="M53.9522 13.3496C52.1069 14.172 50.1235 14.7272 48.041 14.9771C50.1652 13.6976 51.798 11.6721 52.5662 9.25845C50.578 10.4428 48.3752 11.3035 46.0309 11.7669C44.1534 9.75783 41.4783 8.5031 38.5182 8.5031C32.8332 8.5031 28.2256 13.1307 28.2256 18.8386C28.2256 19.6492 28.3168 20.4379 28.4921 21.1943C19.9382 20.7633 12.3545 16.6484 7.27837 10.3951C6.39226 11.9213 5.88479 13.697 5.88479 15.5914C5.88479 19.177 7.70179 22.3405 10.4633 24.1941C8.77616 24.1409 7.18914 23.6755 5.80172 22.9013C5.80074 22.9446 5.80074 22.9878 5.80074 23.0317C5.80074 28.0396 9.34858 32.2169 14.057 33.1668C13.1931 33.403 12.2837 33.5293 11.3453 33.5293C10.682 33.5293 10.0372 33.464 9.4087 33.3439C10.7186 37.4499 14.5194 40.4383 19.0234 40.5214C15.5008 43.2944 11.0631 44.9465 6.24053 44.9465C5.40979 44.9465 4.59094 44.8978 3.78588 44.8023C8.34084 47.7353 13.7504 49.4457 19.563 49.4457C38.4943 49.4457 48.8468 33.6961 48.8468 20.0371C48.8468 19.5889 48.8365 19.1434 48.8167 18.7C50.8275 17.2428 52.573 15.4226 53.9522 13.3496Z" fill="#0c0"/>
<rect x="1.4864" y="1.2717" width="54.9895" height="55.2283" fill="#040404" stroke="#0c0"/>
<path d="M53.9522 13.3496C52.1069 14.172 50.1235 14.7272 48.041 14.9771C50.1652 13.6976 51.798 11.6721 52.5662 9.25845C50.578 10.4428 48.3752 11.3035 46.0309 11.7669C44.1534 9.75783 41.4783 8.5031 38.5182 8.5031C32.8332 8.5031 28.2256 13.1307 28.2256 18.8386C28.2256 19.6492 28.3168 20.4379 28.4921 21.1943C19.9382 20.7633 12.3545 16.6484 7.27837 10.3951C6.39226 11.9213 5.88479 13.697 5.88479 15.5914C5.88479 19.177 7.70179 22.3405 10.4633 24.1941C8.77616 24.1409 7.18914 23.6755 5.80172 22.9013C5.80074 22.9446 5.80074 22.9878 5.80074 23.0317C5.80074 28.0396 9.34858 32.2169 14.057 33.1668C13.1931 33.403 12.2837 33.5293 11.3453 33.5293C10.682 33.5293 10.0372 33.464 9.4087 33.3439C10.7186 37.4499 14.5194 40.4383 19.0234 40.5214C15.5008 43.2944 11.0631 44.9465 6.24053 44.9465C5.40979 44.9465 4.59094 44.8978 3.78588 44.8023C8.34084 47.7353 13.7504 49.4457 19.563 49.4457C38.4943 49.4457 48.8468 33.6961 48.8468 20.0371C48.8468 19.5889 48.8365 19.1434 48.8167 18.7C50.8275 17.2428 52.573 15.4226 53.9522 13.3496Z" fill="#0c0"/>
</svg>
